<svg xmlns="http://www.w3.org/2000/svg" xmlns:xlink="http://www.w3.org/1999/xlink" width="195" zoomAndPan="magnify" viewBox="0 0 146.25 116.249996" height="155" preserveAspectRatio="xMidYMid meet" version="1.0"><defs><clipPath id="8ea3e14c20"><path d="M 14.292969 0 L 131.289062 0 L 131.289062 111.035156 L 14.292969 111.035156 Z M 14.292969 0 " clip-rule="nonzero"/></clipPath></defs><g clip-path="url(#8ea3e14c20)"><path fill="#ffc78f" d="M 131.207031 56.175781 C 131.207031 44.570312 121.765625 35.132812 110.164062 35.132812 C 98.5625 35.132812 89.121094 44.570312 89.121094 56.175781 C 89.121094 62.484375 91.917969 68.152344 96.335938 72.011719 L 85.308594 79.476562 C 83.3125 77.605469 80.914062 76.164062 78.246094 75.328125 C 78.234375 75.324219 78.21875 75.316406 78.207031 75.3125 C 76.765625 74.867188 75.242188 74.613281 73.675781 74.535156 L 73.675781 42.171875 C 76.929688 42.027344 79.988281 41.148438 82.695312 39.6875 C 82.71875 39.679688 82.734375 39.667969 82.757812 39.65625 C 89.324219 36.09375 93.789062 29.132812 93.789062 21.152344 C 93.792969 9.550781 84.351562 0.109375 72.75 0.109375 C 61.148438 0.109375 51.707031 9.550781 51.707031 21.152344 C 51.707031 29.132812 56.175781 36.09375 62.742188 39.65625 C 62.761719 39.667969 62.78125 39.679688 62.800781 39.6875 C 65.511719 41.148438 68.570312 42.027344 71.820312 42.171875 L 71.820312 74.53125 C 70.253906 74.613281 68.730469 74.863281 67.292969 75.3125 C 67.277344 75.316406 67.265625 75.320312 67.25 75.328125 C 64.582031 76.164062 62.1875 77.605469 60.191406 79.476562 L 49.164062 72.011719 C 53.578125 68.152344 56.375 62.484375 56.375 56.171875 C 56.375 44.570312 46.9375 35.132812 35.332031 35.132812 C 23.730469 35.132812 14.292969 44.570312 14.292969 56.175781 C 14.292969 64.15625 18.761719 71.117188 25.328125 74.679688 C 25.347656 74.691406 25.363281 74.703125 25.386719 74.710938 C 28.347656 76.308594 31.738281 77.214844 35.332031 77.214844 C 38.929688 77.214844 42.316406 76.308594 45.28125 74.710938 C 45.300781 74.703125 45.320312 74.691406 45.339844 74.679688 C 46.140625 74.246094 46.90625 73.753906 47.644531 73.222656 L 58.882812 80.832031 C 58.132812 81.691406 57.464844 82.625 56.882812 83.613281 C 56.828125 83.683594 56.777344 83.757812 56.746094 83.839844 C 55.226562 86.515625 54.347656 89.597656 54.347656 92.886719 C 54.347656 96.171875 55.226562 99.253906 56.742188 101.925781 C 56.777344 102.015625 56.828125 102.089844 56.886719 102.160156 C 59.179688 106.070312 62.863281 109.074219 67.269531 110.449219 C 67.289062 110.457031 67.3125 110.460938 67.332031 110.464844 C 69.046875 110.996094 70.863281 111.28125 72.746094 111.28125 C 74.628906 111.28125 76.449219 110.996094 78.160156 110.464844 C 78.183594 110.460938 78.203125 110.457031 78.222656 110.449219 C 82.625 109.074219 86.304688 106.078125 88.601562 102.175781 C 88.660156 102.097656 88.714844 102.015625 88.75 101.925781 C 90.269531 99.25 91.144531 96.171875 91.144531 92.886719 C 91.144531 89.597656 90.269531 86.519531 88.75 83.84375 C 88.71875 83.753906 88.664062 83.675781 88.605469 83.601562 C 88.023438 82.617188 87.359375 81.6875 86.613281 80.832031 L 97.851562 73.226562 C 98.585938 73.757812 99.355469 74.246094 100.15625 74.679688 C 100.175781 74.691406 100.195312 74.703125 100.214844 74.710938 C 103.175781 76.308594 106.566406 77.214844 110.160156 77.214844 C 113.757812 77.214844 117.144531 76.308594 120.109375 74.710938 C 120.128906 74.703125 120.148438 74.691406 120.167969 74.679688 C 126.738281 71.117188 131.207031 64.15625 131.207031 56.175781 Z M 16.148438 56.175781 C 16.148438 45.59375 24.753906 36.988281 35.335938 36.988281 C 45.914062 36.988281 54.519531 45.59375 54.519531 56.175781 C 54.519531 62.90625 51.027344 68.828125 45.765625 72.253906 C 45.503906 68.710938 44.449219 60.210938 40.308594 56.3125 C 42.109375 54.859375 43.261719 52.636719 43.261719 50.148438 C 43.261719 45.777344 39.707031 42.21875 35.335938 42.21875 C 30.964844 42.21875 27.40625 45.777344 27.40625 50.148438 C 27.40625 52.636719 28.5625 54.859375 30.363281 56.3125 C 26.222656 60.210938 25.164062 68.710938 24.902344 72.253906 C 19.640625 68.828125 16.148438 62.90625 16.148438 56.175781 Z M 29.261719 50.148438 C 29.261719 46.800781 31.988281 44.078125 35.335938 44.078125 C 38.683594 44.078125 41.40625 46.800781 41.40625 50.148438 C 41.40625 53.496094 38.683594 56.222656 35.335938 56.222656 C 31.988281 56.222656 29.261719 53.496094 29.261719 50.148438 Z M 26.699219 73.285156 C 26.839844 70.746094 27.660156 60.824219 32.011719 57.335938 C 33.023438 57.808594 34.144531 58.078125 35.335938 58.078125 C 36.523438 58.078125 37.648438 57.808594 38.660156 57.335938 C 43.007812 60.824219 43.832031 70.746094 43.96875 73.285156 C 41.371094 74.601562 38.441406 75.359375 35.335938 75.359375 C 32.226562 75.359375 29.296875 74.601562 26.699219 73.285156 Z M 87.335938 100.671875 L 82.324219 100.671875 C 82.867188 98.386719 83.171875 96.101562 83.238281 93.8125 L 89.246094 93.8125 C 89.105469 96.277344 88.441406 98.605469 87.335938 100.671875 Z M 73.675781 109.378906 L 73.675781 102.527344 L 79.890625 102.527344 C 79.238281 104.613281 78.382812 106.695312 77.308594 108.773438 C 76.144531 109.105469 74.929688 109.308594 73.675781 109.378906 Z M 68.191406 108.773438 C 67.117188 106.695312 66.261719 104.613281 65.609375 102.527344 L 71.820312 102.527344 L 71.820312 109.378906 C 70.570312 109.308594 69.351562 109.105469 68.191406 108.773438 Z M 56.253906 93.8125 L 62.261719 93.8125 C 62.328125 96.101562 62.632812 98.386719 63.175781 100.671875 L 58.164062 100.671875 C 57.054688 98.605469 56.390625 96.277344 56.253906 93.8125 Z M 58.160156 85.097656 L 63.175781 85.097656 C 62.632812 87.382812 62.328125 89.667969 62.261719 91.957031 L 56.253906 91.957031 C 56.390625 89.492188 57.054688 87.164062 58.160156 85.097656 Z M 65.644531 77.96875 C 64.839844 79.722656 64.191406 81.484375 63.671875 83.242188 L 59.335938 83.242188 C 60.957031 80.996094 63.121094 79.175781 65.644531 77.96875 Z M 71.820312 76.390625 L 71.820312 83.242188 L 65.613281 83.242188 C 66.261719 81.15625 67.117188 79.074219 68.191406 76.996094 C 69.351562 76.660156 70.570312 76.460938 71.820312 76.390625 Z M 77.308594 76.996094 C 78.378906 79.074219 79.238281 81.15625 79.886719 83.242188 L 73.675781 83.242188 L 73.675781 76.390625 C 74.929688 76.460938 76.144531 76.660156 77.308594 76.996094 Z M 73.675781 85.097656 L 80.410156 85.097656 C 80.984375 87.382812 81.300781 89.667969 81.367188 91.957031 L 73.675781 91.957031 Z M 71.820312 91.957031 L 64.128906 91.957031 C 64.199219 89.667969 64.511719 87.382812 65.085938 85.097656 L 71.820312 85.097656 Z M 64.128906 93.8125 L 71.820312 93.8125 L 71.820312 100.671875 L 65.085938 100.671875 C 64.511719 98.386719 64.199219 96.101562 64.128906 93.8125 Z M 73.675781 100.671875 L 73.675781 93.8125 L 81.367188 93.8125 C 81.300781 96.101562 80.988281 98.386719 80.414062 100.671875 Z M 83.238281 91.957031 C 83.171875 89.667969 82.867188 87.382812 82.324219 85.097656 L 87.335938 85.097656 C 88.441406 87.164062 89.105469 89.488281 89.246094 91.957031 Z M 81.828125 83.242188 C 81.304688 81.480469 80.660156 79.722656 79.855469 77.96875 C 82.375 79.175781 84.542969 80.996094 86.164062 83.242188 Z M 64.113281 38.261719 C 64.253906 35.722656 65.070312 25.804688 69.425781 22.316406 C 70.4375 22.785156 71.5625 23.054688 72.75 23.054688 C 73.9375 23.054688 75.0625 22.785156 76.074219 22.316406 C 80.421875 25.800781 81.246094 35.722656 81.386719 38.261719 C 78.785156 39.578125 75.859375 40.335938 72.75 40.335938 C 69.640625 40.339844 66.710938 39.578125 64.113281 38.261719 Z M 72.75 21.199219 C 69.402344 21.199219 66.675781 18.476562 66.675781 15.128906 C 66.675781 11.78125 69.402344 9.054688 72.75 9.054688 C 76.097656 9.054688 78.820312 11.78125 78.820312 15.128906 C 78.820312 18.476562 76.097656 21.199219 72.75 21.199219 Z M 53.5625 21.152344 C 53.5625 10.574219 62.171875 1.96875 72.75 1.96875 C 83.328125 1.96875 91.933594 10.574219 91.933594 21.152344 C 91.933594 27.882812 88.441406 33.808594 83.183594 37.230469 C 82.917969 33.6875 81.863281 25.1875 77.722656 21.292969 C 79.523438 19.839844 80.675781 17.617188 80.675781 15.128906 C 80.675781 10.753906 77.121094 7.199219 72.75 7.199219 C 68.378906 7.199219 64.820312 10.753906 64.820312 15.128906 C 64.820312 17.617188 65.976562 19.839844 67.777344 21.292969 C 63.636719 25.1875 62.578125 33.6875 62.316406 37.230469 C 57.054688 33.808594 53.5625 27.882812 53.5625 21.152344 Z M 59.335938 102.527344 L 63.671875 102.527344 C 64.191406 104.285156 64.839844 106.046875 65.644531 107.800781 C 63.121094 106.59375 60.957031 104.773438 59.335938 102.527344 Z M 79.855469 107.800781 C 80.660156 106.046875 81.308594 104.285156 81.828125 102.527344 L 86.164062 102.527344 C 84.542969 104.773438 82.375 106.59375 79.855469 107.800781 Z M 90.980469 56.175781 C 90.980469 45.59375 99.585938 36.988281 110.164062 36.988281 C 120.746094 36.988281 129.351562 45.59375 129.351562 56.175781 C 129.351562 62.90625 125.859375 68.828125 120.597656 72.253906 C 120.332031 68.710938 119.277344 60.210938 115.136719 56.3125 C 116.9375 54.859375 118.09375 52.636719 118.09375 50.148438 C 118.09375 45.777344 114.535156 42.21875 110.164062 42.21875 C 105.792969 42.21875 102.238281 45.777344 102.238281 50.148438 C 102.238281 52.636719 103.390625 54.859375 105.191406 56.3125 C 101.050781 60.210938 99.996094 68.710938 99.734375 72.253906 C 94.472656 68.828125 90.980469 62.90625 90.980469 56.175781 Z M 104.09375 50.148438 C 104.09375 46.800781 106.816406 44.078125 110.164062 44.078125 C 113.511719 44.078125 116.238281 46.800781 116.238281 50.148438 C 116.238281 53.496094 113.511719 56.222656 110.164062 56.222656 C 106.816406 56.222656 104.09375 53.496094 104.09375 50.148438 Z M 101.527344 73.285156 C 101.667969 70.746094 102.488281 60.828125 106.839844 57.335938 C 107.851562 57.808594 108.976562 58.078125 110.164062 58.078125 C 111.351562 58.078125 112.476562 57.808594 113.488281 57.335938 C 117.835938 60.824219 118.660156 70.746094 118.800781 73.285156 C 116.203125 74.601562 113.273438 75.359375 110.164062 75.359375 C 107.054688 75.359375 104.128906 74.601562 101.527344 73.285156 Z M 101.527344 73.285156 " fill-opacity="1" fill-rule="nonzero"/></g></svg>