<svg xmlns="http://www.w3.org/2000/svg" xmlns:xlink="http://www.w3.org/1999/xlink" width="195" zoomAndPan="magnify" viewBox="0 0 146.25 116.249996" height="155" preserveAspectRatio="xMidYMid meet" version="1.0"><defs><clipPath id="f43d151a4e"><path d="M 21.351562 86 L 48 86 L 48 115.503906 L 21.351562 115.503906 Z M 21.351562 86 " clip-rule="nonzero"/></clipPath></defs><path fill="#ffc78f" d="M 46.183594 107.257812 C 44.824219 107.257812 44.324219 105.449219 45.503906 104.753906 L 45.664062 104.65625 C 52.160156 100.828125 56.101562 98.5 62.871094 101.601562 C 73.484375 105.027344 80.898438 100.003906 89.476562 94.1875 L 89.636719 94.074219 C 101.269531 86.207031 103.691406 80.199219 104.207031 77.984375 C 104.886719 74.996094 101.316406 70.78125 97.796875 75.304688 C 94.371094 79.683594 88.441406 84.253906 84.742188 86.902344 C 85.226562 89.421875 83.238281 92.621094 77.875 93.769531 C 67.394531 95.996094 59.703125 92.847656 59.378906 92.71875 C 58.703125 92.425781 58.378906 91.636719 58.667969 90.941406 C 58.960938 90.261719 59.734375 89.941406 60.429688 90.230469 C 60.496094 90.261719 67.699219 93.1875 77.3125 91.136719 C 82.773438 89.957031 83.742188 86.289062 79.296875 85.609375 C 76.324219 85.140625 72.804688 84.207031 69.074219 83.203125 C 60.316406 80.859375 49.445312 77.9375 46.585938 82.445312 C 44.390625 85.902344 41.546875 87.644531 37.121094 90.117188 C 36.472656 90.472656 35.648438 90.246094 35.292969 89.601562 C 34.921875 88.953125 35.164062 88.128906 35.8125 87.757812 C 40.238281 85.304688 42.515625 83.832031 44.308594 81.007812 C 46.117188 78.148438 49.671875 77 55.164062 77.484375 C 59.636719 77.871094 64.792969 79.261719 69.765625 80.601562 C 73.417969 81.589844 76.875 82.507812 79.71875 82.945312 C 81.238281 83.1875 82.496094 83.753906 83.386719 84.558594 C 86.972656 81.976562 92.511719 77.679688 95.664062 73.65625 C 100.976562 66.839844 108.148438 72.816406 106.824219 78.582031 C 106.097656 81.734375 103.109375 88.195312 91.140625 96.304688 L 90.976562 96.417969 C 82.171875 102.378906 73.855469 108.015625 61.964844 104.140625 C 61.917969 104.125 61.867188 104.105469 61.820312 104.074219 C 56.261719 101.523438 53.371094 103.234375 47.023438 106.984375 C 46.730469 107.144531 46.554688 107.257812 46.183594 107.257812 Z M 46.183594 107.257812 " fill-opacity="1" fill-rule="evenodd"/><g clip-path="url(#f43d151a4e)"><path fill="#ffc78f" d="M 35.375 115.480469 C 33.921875 115.480469 32.5625 114.703125 31.820312 113.429688 L 22.484375 97.257812 C 21.351562 95.285156 22.03125 92.78125 23.984375 91.652344 L 32.144531 86.933594 C 34.097656 85.804688 36.617188 86.484375 37.75 88.4375 L 47.085938 104.609375 C 48.21875 106.578125 47.539062 109.082031 45.585938 110.214844 L 37.425781 114.929688 C 36.796875 115.285156 36.101562 115.480469 35.375 115.480469 Z M 34.179688 89.082031 C 33.9375 89.082031 33.695312 89.148438 33.484375 89.261719 L 25.328125 93.976562 C 24.664062 94.367188 24.421875 95.238281 24.808594 95.902344 L 34.148438 112.070312 C 34.535156 112.75 35.40625 112.976562 36.070312 112.589844 L 44.226562 107.886719 C 44.90625 107.5 45.132812 106.628906 44.746094 105.949219 L 35.40625 89.777344 C 35.164062 89.34375 34.695312 89.082031 34.179688 89.082031 Z M 32.804688 88.097656 Z M 32.804688 88.097656 " fill-opacity="1" fill-rule="evenodd"/></g><path fill="#ffc78f" d="M 38.6875 113.992188 C 38.21875 113.992188 37.765625 113.75 37.523438 113.316406 L 33.128906 105.707031 C 32.757812 105.078125 32.984375 104.253906 33.628906 103.863281 C 34.277344 103.507812 35.101562 103.71875 35.472656 104.367188 L 39.847656 111.972656 C 40.367188 112.863281 39.71875 113.992188 38.6875 113.992188 Z M 38.6875 113.992188 " fill-opacity="1" fill-rule="evenodd"/><path fill="#ffc78f" d="M 42.757812 111.636719 C 42.289062 111.636719 41.835938 111.394531 41.578125 110.972656 L 37.199219 103.363281 C 36.828125 102.71875 37.054688 101.894531 37.683594 101.523438 C 38.332031 101.152344 39.15625 101.378906 39.527344 102.023438 L 43.921875 109.617188 C 44.4375 110.519531 43.773438 111.636719 42.757812 111.636719 Z M 42.757812 111.636719 " fill-opacity="1" fill-rule="evenodd"/><path fill="#ffc78f" d="M 44.5 45.46875 C 40.691406 45.46875 37.796875 41.28125 38.671875 37.488281 C 39.414062 34.222656 42.484375 27.792969 54.519531 19.652344 C 63.320312 13.707031 71.640625 8.070312 83.53125 11.945312 C 83.578125 11.964844 83.628906 11.980469 83.675781 12.011719 C 89.3125 14.578125 92.171875 12.820312 98.636719 9.007812 C 99.28125 8.636719 100.105469 8.84375 100.476562 9.492188 C 100.847656 10.121094 100.636719 10.960938 99.992188 11.332031 L 99.847656 11.429688 C 93.335938 15.257812 89.394531 17.585938 82.625 14.484375 C 72.011719 11.058594 64.613281 16.082031 56.035156 21.882812 C 44.339844 29.78125 41.835938 35.742188 41.289062 38.101562 C 40.609375 41.089844 44.179688 45.289062 47.699219 40.78125 C 51.125 36.40625 57.054688 31.832031 60.753906 29.183594 C 60.269531 26.648438 62.238281 23.464844 67.617188 22.316406 C 78.101562 20.089844 85.777344 23.238281 86.097656 23.367188 C 86.792969 23.660156 87.117188 24.449219 86.828125 25.128906 C 86.535156 25.824219 85.742188 26.144531 85.066406 25.855469 C 85 25.824219 77.796875 22.898438 68.183594 24.949219 C 62.707031 26.113281 61.753906 29.796875 66.179688 30.476562 C 69.167969 30.929688 72.691406 31.882812 76.421875 32.882812 C 85.164062 35.226562 96.050781 38.148438 98.910156 33.625 C 101.105469 30.167969 103.949219 28.425781 108.375 25.96875 C 109.023438 25.597656 109.847656 25.839844 110.203125 26.484375 C 110.558594 27.132812 110.332031 27.957031 109.683594 28.3125 C 105.257812 30.78125 102.964844 32.253906 101.1875 35.078125 C 99.378906 37.921875 95.824219 39.085938 90.332031 38.601562 C 85.855469 38.199219 80.703125 36.824219 75.726562 35.484375 C 72.0625 34.5 68.621094 33.578125 65.777344 33.140625 C 64.257812 32.898438 63 32.332031 62.109375 31.527344 C 58.523438 34.09375 52.984375 38.390625 49.832031 42.429688 C 48.265625 44.417969 46.390625 45.46875 44.5 45.46875 Z M 44.5 45.46875 " fill-opacity="1" fill-rule="evenodd"/><path fill="#ffc78f" d="M 111.316406 29.699219 C 109.847656 29.699219 108.488281 28.925781 107.746094 27.648438 L 98.410156 11.476562 C 97.277344 9.523438 97.957031 7.003906 99.910156 5.871094 L 108.070312 1.15625 C 110.039062 0.0234375 112.542969 0.703125 113.675781 2.65625 L 123.011719 18.828125 C 124.144531 20.800781 123.480469 23.304688 121.507812 24.433594 L 113.351562 29.152344 C 112.722656 29.523438 112.027344 29.699219 111.316406 29.699219 Z M 110.121094 3.304688 C 109.878906 3.304688 109.636719 3.367188 109.410156 3.5 L 101.269531 8.199219 C 100.589844 8.585938 100.347656 9.460938 100.75 10.121094 L 110.089844 26.308594 C 110.460938 26.96875 111.332031 27.210938 112.011719 26.824219 L 120.167969 22.109375 C 120.832031 21.71875 121.074219 20.847656 120.6875 20.183594 L 111.347656 4.015625 C 111.089844 3.5625 110.605469 3.304688 110.121094 3.304688 Z M 110.121094 3.304688 " fill-opacity="1" fill-rule="evenodd"/><path fill="#ffc78f" d="M 111.203125 12.398438 C 110.734375 12.398438 110.28125 12.15625 110.039062 11.71875 L 105.644531 4.113281 C 105.273438 3.480469 105.484375 2.65625 106.128906 2.285156 C 106.777344 1.898438 107.601562 2.125 107.972656 2.769531 L 112.367188 10.378906 C 112.882812 11.285156 112.222656 12.398438 111.203125 12.398438 Z M 111.203125 12.398438 " fill-opacity="1" fill-rule="evenodd"/><path fill="#ffc78f" d="M 107.132812 14.742188 C 106.664062 14.742188 106.210938 14.5 105.96875 14.0625 L 101.574219 6.46875 C 101.203125 5.824219 101.429688 5 102.074219 4.628906 C 102.722656 4.257812 103.546875 4.46875 103.917969 5.113281 L 108.296875 12.722656 C 108.828125 13.625 108.167969 14.742188 107.132812 14.742188 Z M 107.132812 14.742188 " fill-opacity="1" fill-rule="evenodd"/><path fill="#ffc78f" d="M 72.753906 78.503906 C 72.382812 78.503906 72.027344 78.355469 71.785156 78.097656 C 68.28125 74.480469 64.726562 71.796875 61.609375 69.40625 C 55.246094 64.578125 50.21875 60.75 50.21875 52.867188 C 50.21875 46.128906 55.566406 40.636719 62.160156 40.636719 C 67.425781 40.636719 70.382812 43.207031 72.753906 47.277344 C 75.113281 43.207031 78.070312 40.636719 83.335938 40.636719 C 89.929688 40.636719 95.273438 46.128906 95.273438 52.867188 C 95.273438 60.75 90.25 64.578125 83.902344 69.40625 C 80.769531 71.796875 77.230469 74.480469 73.707031 78.097656 C 73.464844 78.355469 73.109375 78.503906 72.753906 78.503906 Z M 62.160156 43.335938 C 57.054688 43.335938 52.902344 47.617188 52.902344 52.867188 C 52.902344 59.425781 57.023438 62.542969 63.242188 67.273438 C 66.148438 69.488281 69.429688 71.976562 72.753906 75.238281 C 76.066406 71.976562 79.347656 69.488281 82.253906 67.273438 C 88.472656 62.542969 92.59375 59.425781 92.59375 52.867188 C 92.59375 47.617188 88.441406 43.335938 83.335938 43.335938 C 79.023438 43.335938 76.648438 45.191406 73.953125 50.734375 C 73.464844 51.75 72.027344 51.75 71.542969 50.734375 C 68.847656 45.191406 66.472656 43.335938 62.160156 43.335938 Z M 62.160156 43.335938 " fill-opacity="1" fill-rule="evenodd"/><path fill="#ffc78f" d="M 56.585938 54.351562 C 55.84375 54.351562 55.246094 53.738281 55.246094 52.996094 C 55.246094 48.925781 58.796875 45.628906 63.160156 45.628906 C 63.902344 45.628906 64.5 46.226562 64.5 46.96875 C 64.5 47.710938 63.902344 48.308594 63.160156 48.308594 C 60.285156 48.308594 57.941406 50.410156 57.941406 52.996094 C 57.941406 53.738281 57.328125 54.351562 56.585938 54.351562 Z M 56.585938 54.351562 " fill-opacity="1" fill-rule="evenodd"/></svg>