<svg xmlns="http://www.w3.org/2000/svg" xmlns:xlink="http://www.w3.org/1999/xlink" width="195" zoomAndPan="magnify" viewBox="0 0 146.25 116.249996" height="155" preserveAspectRatio="xMidYMid meet" version="1.0"><defs><clipPath id="e19d3c56d1"><path d="M 15 0 L 130.503906 0 L 130.503906 115.503906 L 15 115.503906 Z M 15 0 " clip-rule="nonzero"/></clipPath></defs><g clip-path="url(#e19d3c56d1)"><path fill="#ffc78f" d="M 37.703125 104.152344 C 37.703125 105.054688 36.972656 105.789062 36.066406 105.789062 L 30.964844 105.789062 C 30.0625 105.789062 29.328125 105.054688 29.328125 104.152344 C 29.328125 103.25 30.0625 102.515625 30.964844 102.515625 L 36.066406 102.515625 C 36.972656 102.515625 37.703125 103.25 37.703125 104.152344 Z M 26.351562 107.128906 C 25.449219 107.128906 24.714844 107.863281 24.714844 108.765625 L 24.714844 113.867188 C 24.714844 114.773438 25.449219 115.503906 26.351562 115.503906 C 27.257812 115.503906 27.988281 114.773438 27.988281 113.867188 L 27.988281 108.765625 C 27.988281 107.863281 27.257812 107.128906 26.351562 107.128906 Z M 21.738281 102.515625 L 16.636719 102.515625 C 15.734375 102.515625 15 103.25 15 104.152344 C 15 105.054688 15.734375 105.789062 16.636719 105.789062 L 21.738281 105.789062 C 22.640625 105.789062 23.375 105.054688 23.375 104.152344 C 23.375 103.25 22.640625 102.515625 21.738281 102.515625 Z M 26.351562 92.800781 C 25.449219 92.800781 24.714844 93.53125 24.714844 94.4375 L 24.714844 99.539062 C 24.714844 100.441406 25.449219 101.175781 26.351562 101.175781 C 27.257812 101.175781 27.988281 100.441406 27.988281 99.539062 L 27.988281 94.4375 C 27.988281 93.53125 27.257812 92.800781 26.351562 92.800781 Z M 130.503906 97.605469 C 130.503906 107.476562 122.476562 115.503906 112.605469 115.503906 C 103.925781 115.503906 96.671875 109.292969 95.050781 101.082031 C 88.054688 104.339844 80.5625 105.992188 72.753906 105.992188 C 58.597656 105.992188 45.289062 100.480469 35.277344 90.46875 C 25.269531 80.460938 19.757812 67.152344 19.757812 52.996094 C 19.757812 39.738281 24.679688 27.046875 33.617188 17.261719 C 34.226562 16.59375 35.261719 16.546875 35.929688 17.160156 C 36.597656 17.769531 36.644531 18.804688 36.035156 19.46875 C 27.648438 28.648438 23.03125 40.554688 23.03125 52.996094 C 23.03125 74.078125 36.21875 92.132812 54.777344 99.355469 L 54.777344 80.960938 C 54.777344 79.914062 54.460938 79.058594 53.78125 78.257812 L 29.402344 49.617188 C 28.019531 47.996094 27.355469 45.921875 27.53125 43.78125 C 27.707031 41.628906 28.707031 39.683594 30.347656 38.296875 C 31.980469 36.917969 34.058594 36.257812 36.203125 36.4375 C 38.347656 36.617188 40.285156 37.613281 41.664062 39.246094 L 57.859375 58.410156 C 58.6875 59.390625 59.757812 59.890625 61.042969 59.890625 L 84.460938 59.890625 C 85.746094 59.890625 86.816406 59.390625 87.644531 58.410156 L 103.839844 39.246094 C 106.695312 35.867188 111.773438 35.4375 115.15625 38.296875 C 116.796875 39.683594 117.796875 41.628906 117.972656 43.78125 C 118.148438 45.921875 117.484375 47.996094 116.101562 49.617188 L 91.722656 78.257812 C 91.042969 79.058594 90.730469 79.914062 90.730469 80.960938 L 90.730469 99.367188 C 92.074219 98.84375 93.402344 98.261719 94.707031 97.617188 C 94.707031 97.613281 94.707031 97.609375 94.707031 97.605469 C 94.707031 87.738281 102.738281 79.707031 112.605469 79.707031 C 113.289062 79.707031 113.960938 79.75 114.621094 79.824219 C 119.761719 71.820312 122.476562 62.558594 122.476562 52.996094 C 122.476562 25.578125 100.167969 3.273438 72.753906 3.273438 C 67.289062 3.273438 61.921875 4.152344 56.796875 5.886719 C 55.941406 6.175781 55.011719 5.71875 54.722656 4.863281 C 54.433594 4.007812 54.890625 3.078125 55.746094 2.789062 C 61.210938 0.9375 66.929688 0 72.753906 0 C 86.90625 0 100.214844 5.511719 110.226562 15.523438 C 120.234375 25.53125 125.75 38.839844 125.75 52.996094 C 125.75 62.777344 123.085938 72.261719 118.03125 80.550781 C 125.253906 82.851562 130.503906 89.628906 130.503906 97.605469 Z M 72.753906 102.71875 C 77.816406 102.71875 82.734375 101.976562 87.457031 100.515625 L 87.457031 80.960938 C 87.457031 79.144531 88.050781 77.523438 89.230469 76.136719 L 113.609375 47.496094 C 114.425781 46.539062 114.816406 45.316406 114.710938 44.050781 C 114.605469 42.773438 114.015625 41.617188 113.042969 40.796875 C 111.039062 39.105469 108.03125 39.355469 106.339844 41.359375 L 90.144531 60.523438 C 88.6875 62.25 86.722656 63.160156 84.460938 63.160156 L 61.042969 63.160156 C 58.785156 63.160156 56.816406 62.25 55.359375 60.523438 L 39.164062 41.359375 C 38.351562 40.394531 37.199219 39.804688 35.929688 39.699219 C 34.660156 39.589844 33.425781 39.980469 32.460938 40.796875 C 31.492188 41.617188 30.898438 42.773438 30.792969 44.050781 C 30.691406 45.316406 31.082031 46.542969 31.894531 47.496094 L 56.273438 76.136719 C 57.453125 77.523438 58.050781 79.144531 58.050781 80.960938 L 58.050781 100.5 C 62.699219 101.941406 67.636719 102.71875 72.753906 102.71875 Z M 127.230469 97.605469 C 127.230469 89.542969 120.671875 82.980469 112.605469 82.980469 C 104.542969 82.980469 97.980469 89.542969 97.980469 97.605469 C 97.980469 105.671875 104.542969 112.230469 112.605469 112.230469 C 120.671875 112.230469 127.230469 105.671875 127.230469 97.605469 Z M 122.902344 91.355469 C 122.296875 90.683594 121.261719 90.628906 120.589844 91.234375 L 108.84375 101.824219 L 103.734375 95.488281 C 103.167969 94.785156 102.136719 94.675781 101.433594 95.246094 C 100.730469 95.8125 100.621094 96.84375 101.1875 97.546875 L 107.382812 105.222656 C 107.664062 105.574219 108.078125 105.792969 108.527344 105.828125 C 108.570312 105.832031 108.613281 105.832031 108.65625 105.832031 C 109.058594 105.832031 109.449219 105.683594 109.753906 105.410156 L 122.785156 93.667969 C 123.453125 93.0625 123.507812 92.027344 122.902344 91.355469 Z M 57.667969 38.785156 C 57.667969 30.46875 64.4375 23.703125 72.753906 23.703125 C 81.070312 23.703125 87.835938 30.46875 87.835938 38.785156 C 87.835938 47.101562 81.070312 53.867188 72.753906 53.867188 C 64.433594 53.867188 57.667969 47.101562 57.667969 38.785156 Z M 60.941406 38.785156 C 60.941406 45.296875 66.242188 50.59375 72.753906 50.59375 C 79.265625 50.59375 84.5625 45.296875 84.5625 38.785156 C 84.5625 32.273438 79.265625 26.976562 72.753906 26.976562 C 66.242188 26.976562 60.941406 32.273438 60.941406 38.785156 Z M 47.710938 12.988281 L 52.8125 12.988281 C 53.714844 12.988281 54.449219 12.257812 54.449219 11.351562 C 54.449219 10.449219 53.714844 9.714844 52.8125 9.714844 L 47.710938 9.714844 C 46.808594 9.714844 46.074219 10.449219 46.074219 11.351562 C 46.074219 12.257812 46.808594 12.988281 47.710938 12.988281 Z M 43.097656 8.375 C 44 8.375 44.734375 7.640625 44.734375 6.738281 L 44.734375 1.636719 C 44.734375 0.734375 44 0 43.097656 0 C 42.195312 0 41.460938 0.734375 41.460938 1.636719 L 41.460938 6.738281 C 41.460938 7.640625 42.195312 8.375 43.097656 8.375 Z M 43.097656 22.703125 C 44 22.703125 44.734375 21.972656 44.734375 21.066406 L 44.734375 15.964844 C 44.734375 15.0625 44 14.328125 43.097656 14.328125 C 42.195312 14.328125 41.460938 15.0625 41.460938 15.964844 L 41.460938 21.066406 C 41.460938 21.972656 42.195312 22.703125 43.097656 22.703125 Z M 33.382812 12.988281 L 38.484375 12.988281 C 39.386719 12.988281 40.121094 12.257812 40.121094 11.351562 C 40.121094 10.449219 39.386719 9.714844 38.484375 9.714844 L 33.382812 9.714844 C 32.476562 9.714844 31.746094 10.449219 31.746094 11.351562 C 31.746094 12.257812 32.476562 12.988281 33.382812 12.988281 Z M 33.382812 12.988281 " fill-opacity="1" fill-rule="nonzero"/></g></svg>